<svg width="135" height="40" viewBox="0 0 115 40" fill="none" xmlns="http://www.w3.org/2000/svg">
<g clip-path="url(#clip0)">
<path opacity="0.69" d="M8.26293 3.38086C8.26293 3.38086 0.972933 21.0009 16.1129 23.2809C31.2529 25.5609 26.4329 41.0009 12.7729 38.3509C-0.357067 35.7809 -3.36707 12.6709 8.26293 3.38086Z" fill="url(#paint0_linear)"/>
<path d="M19.5731 26.6006C19.1745 25.0917 18.6562 23.617 18.0231 22.1906C17.1231 20.1906 15.7631 17.6706 17.1831 15.5406C17.6215 14.853 18.2433 14.3015 18.9782 13.9481C19.7132 13.5948 20.5322 13.4536 21.3431 13.5406C24.8331 13.9806 27.3431 17.2006 28.5631 20.2906C30.0531 24.1406 29.1331 28.2906 27.0031 31.6906C25.1631 34.6906 22.5131 37.5106 19.0031 38.3206L18.0831 38.5106C19.2631 37.7406 21.7431 34.9006 19.5731 26.6006Z" fill="url(#paint1_linear)"/>
<path d="M12.123 12.6999C13.5385 12.0166 15.0065 11.4481 16.513 10.9999C18.643 10.3499 21.413 9.75991 22.103 7.29991C22.3368 6.52315 22.3502 5.69674 22.1419 4.91279C21.9335 4.12884 21.5116 3.41814 20.923 2.85991C18.313 0.499915 14.213 0.679914 11.093 1.77991C7.20302 3.16991 4.34302 7.39991 2.94302 10.4599C1.52114 13.8025 0.865116 17.4209 1.02302 21.0499C1.02302 21.3599 1.09302 22.1599 1.15302 22.8299C1.19302 20.8999 4.42302 16.4699 12.123 12.6999Z" fill="url(#paint2_linear)"/>
</g>
<defs>
<linearGradient id="paint0_linear" x1="1.02293" y1="21.0209" x2="25.4529" y2="21.0209" gradientUnits="userSpaceOnUse">
<stop stop-color="#196B83"/>
<stop offset="0.24" stop-color="#0E858E"/>
<stop offset="0.48" stop-color="#069896"/>
<stop offset="0.73" stop-color="#02A39B"/>
<stop offset="1" stop-color="#00A79D"/>
</linearGradient>
<linearGradient id="paint1_linear" x1="16.5231" y1="25.9806" x2="29.2531" y2="25.9806" gradientUnits="userSpaceOnUse">
<stop stop-color="#00A79D"/>
<stop offset="0.12" stop-color="#098A90"/>
<stop offset="0.3" stop-color="#14667F"/>
<stop offset="0.47" stop-color="#1D4972"/>
<stop offset="0.65" stop-color="#233568"/>
<stop offset="0.83" stop-color="#272963"/>
<stop offset="1" stop-color="#282561"/>
</linearGradient>
<linearGradient id="paint2_linear" x1="0.925855" y1="11.8866" x2="22.2199" y2="11.8866" gradientUnits="userSpaceOnUse">
<stop stop-color="#00A79D"/>
<stop offset="0.12" stop-color="#098A90"/>
<stop offset="0.3" stop-color="#14667F"/>
<stop offset="0.47" stop-color="#1D4972"/>
<stop offset="0.65" stop-color="#233568"/>
<stop offset="0.83" stop-color="#272963"/>
<stop offset="1" stop-color="#282561"/>
</linearGradient>
<clipPath id="clip0">
<rect width="135" height="39.66" fill="white"/>
</clipPath>
</defs>
</svg>
